<svg width="497" height="112" xmlns="http://www.w3.org/2000/svg" xmlns:xlink="http://www.w3.org/1999/xlink" xml:space="preserve" overflow="hidden"><defs><clipPath id="clip0"><rect x="148" y="402" width="497" height="112"/></clipPath></defs><g clip-path="url(#clip0)" transform="translate(-148 -402)"><path d="M334.755 70.2684 342.525 91.1308 350.296 70.2684 353.146 70.2684 343.683 95.2275 341.323 95.2275 331.838 70.2684 334.755 70.2684Z" fill="#FFFFFF" transform="matrix(1 0 0 1.00507 148 402.492)"/><path d="M368.353 89.1269 356.552 89.1269 354.125 95.2275 351.275 95.2275 361.272 70.2684 363.699 70.2684 373.719 95.2275 370.802 95.2275 368.353 89.1269ZM367.351 86.5664 362.475 74.2316 357.599 86.5664 367.351 86.5664Z" fill="#FFFFFF" transform="matrix(1 0 0 1.00507 148 402.492)"/><path d="M380.02 70.2684 380.02 92.667 392.644 92.667 392.644 95.2275 377.348 95.2275 377.348 70.2684 380.02 70.2684Z" fill="#FFFFFF" transform="matrix(1 0 0 1.00507 148 402.492)"/><path d="M411.079 70.2684 411.079 72.8289 399.813 72.8289 399.813 80.5994 409.877 80.5994 409.877 83.1599 399.813 83.1599 399.813 92.6448 411.079 92.6448 411.079 95.2053 397.141 95.2053 397.141 70.2684 411.079 70.2684Z" fill="#FFFFFF" transform="matrix(1 0 0 1.00507 148 402.492)"/><path d="M418.783 70.2684 432.765 90.307 432.765 70.2684 435.482 70.2684 435.482 95.2275 432.988 95.2275 418.939 75.2113 418.939 95.2275 416.267 95.2275 416.267 70.2684 418.783 70.2684Z" fill="#FFFFFF" transform="matrix(1 0 0 1.00507 148 402.492)"/><path d="M452.893 95.5838C445.679 95.5838 440.402 90.0175 440.402 82.6701 440.402 75.4339 445.679 69.8899 452.893 69.8899 457.591 69.8899 461.777 72.25 463.268 75.7456L460.886 76.9257C459.572 74.2539 456.5 72.4949 452.893 72.4949 447.193 72.4949 443.185 76.8366 443.185 82.6701 443.185 88.548 447.171 92.9788 452.893 92.9788 456.678 92.9788 459.929 91.0417 461.131 88.0137L463.558 89.1269C462.155 92.9788 457.836 95.5838 452.893 95.5838Z" fill="#FFFFFF" transform="matrix(1 0 0 1.00507 148 402.492)"/><path d="M470.928 70.2684 470.928 95.2275 468.256 95.2275 468.256 70.2684 470.928 70.2684Z" fill="#FFFFFF" transform="matrix(1 0 0 1.00507 148 402.492)"/><path d="M491.656 89.1269 479.856 89.1269 477.429 95.2275 474.579 95.2275 484.576 70.2684 487.003 70.2684 497.022 95.2275 494.106 95.2275 491.656 89.1269ZM490.654 86.5664 485.778 74.2316 480.902 86.5664 490.654 86.5664Z" fill="#FFFFFF" transform="matrix(1 0 0 1.00507 148 402.492)"/><path d="M135.126 36.8041 135.126 15.0734 142.63 15.0734 142.63 36.8264C142.63 40.7895 145.48 43.7285 149.22 43.7285 152.961 43.7285 155.766 40.7895 155.766 36.8264L155.766 15.0734 163.269 15.0734 163.269 36.8264C163.269 44.9976 157.28 51.0092 149.22 51.0092 141.116 51.0092 135.126 44.9754 135.126 36.8041" fill="#FFFFFF" transform="matrix(1 0 0 1.00507 148 402.492)"/><path d="M192.57 36.4479 192.57 50.5416 185.423 50.5416 185.423 37.6724C185.423 34.2213 183.553 32.2398 180.614 32.2398 178.632 32.2398 176.651 33.353 175.649 35.0674L175.649 50.5194 168.502 50.5194 168.502 25.6493 175.649 25.6493 175.649 28.5883C177.007 26.4509 179.657 25.1372 182.44 25.1372 188.718 25.1595 192.57 29.4566 192.57 36.4479" fill="#FFFFFF" transform="matrix(1 0 0 1.00507 148 402.492)"/><path d="M204.727 50.5416 197.58 50.5416 197.58 25.6493 204.727 25.6493 204.727 50.5416ZM205.484 17.9011C205.484 20.2834 203.502 22.265 201.12 22.265 198.738 22.265 196.756 20.2834 196.756 17.9011 196.756 15.5633 198.738 13.5817 201.12 13.5817 203.502 13.5817 205.484 15.5633 205.484 17.9011" fill="#FFFFFF" transform="matrix(1 0 0 1.00507 148 402.492)"/><path d="M224.098 50.5416 218.019 50.5416 207.666 25.6493 215.414 25.6493 221.047 40.8118 226.569 25.6493 234.384 25.6493Z" fill="#FFFFFF" transform="matrix(1 0 0 1.00507 148 402.492)"/><path d="M252.285 35.2455C251.973 32.7519 249.702 30.9261 247.053 30.9261 244.069 30.9261 242.088 32.5515 241.42 35.2455L252.285 35.2455ZM259.232 39.8099 241.331 39.8099C241.999 43.2164 244.314 44.9754 247.721 44.9754 249.947 44.9754 252.285 43.9512 253.153 42.4371L258.72 45.8437C256.894 49.1389 252.73 51.0537 247.565 51.0537 240.262 51.0537 234.495 45.3761 234.495 37.9841 234.495 30.7257 240.173 25.1595 247.431 25.1595 254.178 25.1595 259.454 30.3695 259.454 37.0267 259.432 37.8728 259.365 38.8302 259.232 39.8099" fill="#FFFFFF" transform="matrix(1 0 0 1.00507 148 402.492)"/><path d="M279.604 25.6048 279.203 32.3066C278.246 31.9503 277.021 31.7499 276.02 31.7499 274.394 31.7499 271.811 33.0636 270.587 35.4905L270.587 50.5416 263.44 50.5416 263.44 25.6493 270.587 25.6493 270.587 28.5883C271.811 26.4509 274.483 25.1372 276.576 25.1372 277.823 25.1595 278.847 25.2931 279.604 25.6048" fill="#FFFFFF" transform="matrix(1 0 0 1.00507 148 402.492)"/><path d="M280.317 47.9143 282.454 42.9492C284.792 44.6636 287.82 45.5765 290.87 45.5765 293.097 45.5765 294.522 44.7082 294.522 43.5504 294.477 39.7431 281.096 42.593 280.985 33.4198 280.94 28.7664 285.081 25.1595 290.959 25.1595 294.455 25.1595 297.951 26.0278 300.444 28.0094L298.418 33.1749C296.481 31.7054 293.342 30.5921 290.67 30.5921 288.844 30.5921 287.62 31.4605 287.62 32.5737 287.664 36.1807 301.157 34.1991 301.313 43.1274 301.313 47.7362 297.26 51.076 291.471 51.076 287.197 51.0537 283.3 50.0295 280.317 47.9143" fill="#FFFFFF" transform="matrix(1 0 0 1.00507 148 402.492)"/><path d="M312.289 50.5416 305.142 50.5416 305.142 25.6493 312.289 25.6493 312.289 50.5416ZM313.046 17.9011C313.046 20.2834 311.065 22.265 308.682 22.265 306.3 22.265 304.318 20.2834 304.318 17.9011 304.318 15.5633 306.3 13.5817 308.682 13.5817 311.087 13.6039 313.046 15.5633 313.046 17.9011" fill="#FFFFFF" transform="matrix(1 0 0 1.00507 148 402.492)"/><path d="M156.991 59.5812 156.991 66.7728 142.741 66.7728 142.741 73.1629 155.41 73.1629 155.41 80.3545 142.741 80.3545 142.741 87.8578 156.991 87.8578 156.991 95.0717 135.238 95.0717 135.238 59.5812Z" fill="#FFFFFF" transform="matrix(1 0 0 1.00507 148 402.492)"/><path d="M184.978 70.1794 184.978 95.0717 177.831 95.0717 177.831 92.1327C176.406 94.2701 173.779 95.5838 171.04 95.5838 164.761 95.5838 160.909 91.2866 160.909 84.2286L160.909 70.1794 168.056 70.1794 168.056 83.0486C168.056 86.4996 169.927 88.4144 172.866 88.4144 174.78 88.4144 176.762 87.3457 177.831 85.6313L177.831 70.1794 184.978 70.1794Z" fill="#FFFFFF" transform="matrix(1 0 0 1.00507 148 402.492)"/><path d="M206.152 70.1348 205.751 76.8366C204.794 76.4804 203.569 76.28 202.567 76.28 200.942 76.28 198.359 77.5936 197.135 80.0205L197.135 95.0717 189.988 95.0717 189.988 70.1794 197.135 70.1794 197.135 73.1184C198.359 70.9809 201.031 69.6673 203.124 69.6673 204.393 69.6673 205.395 69.8231 206.152 70.1348" fill="#FFFFFF" transform="matrix(1 0 0 1.00507 148 402.492)"/><path d="M213.722 82.6478C213.722 86.0989 216.26 88.7261 219.645 88.7261 222.984 88.7261 225.567 86.0989 225.567 82.6478 225.567 79.1076 222.984 76.5249 219.645 76.5249 216.238 76.5026 213.722 79.1076 213.722 82.6478M232.558 82.6478C232.558 90.0398 226.925 95.5838 219.622 95.5838 212.275 95.5838 206.686 90.062 206.686 82.6478 206.686 75.2558 212.253 69.6673 219.622 69.6673 226.947 69.6673 232.558 75.2558 232.558 82.6478" fill="#FFFFFF" transform="matrix(1 0 0 1.00507 148 402.492)"/><path d="M251.083 69.6673C247.943 69.6673 244.938 71.0922 243.735 73.1184L243.735 70.1794 236.588 70.1794 236.588 103.287 243.735 103.287 243.735 92.1327C244.96 94.1588 247.943 95.5838 251.083 95.5838 257.562 95.5838 262.638 89.7949 262.638 82.6033 262.638 75.3894 257.562 69.6673 251.083 69.6673ZM249.457 88.7261C246.051 88.7261 243.535 86.0989 243.535 82.6478 243.535 79.1076 246.073 76.5249 249.457 76.5249 252.797 76.5249 255.38 79.1076 255.38 82.6478 255.38 86.0989 252.797 88.7261 249.457 88.7261Z" fill="#FFFFFF" transform="matrix(1 0 0 1.00507 148 402.492)"/><path d="M335.267 15.0734 335.267 28.6106C334.042 26.5844 331.014 25.1595 327.919 25.1595 321.44 25.1595 316.319 30.8816 316.319 38.0955 316.319 45.2871 321.44 51.076 327.919 51.076 331.059 51.076 334.042 49.651 335.267 47.6249L335.267 50.5639 342.414 50.5639 342.414 15.0734 335.267 15.0734ZM329.478 44.2183C326.071 44.2183 323.555 41.5911 323.555 38.14 323.555 34.5999 326.094 32.0171 329.478 32.0171 332.818 32.0171 335.4 34.5999 335.4 38.14 335.4 41.5688 332.818 44.2183 329.478 44.2183Z" fill="#FFFFFF" transform="matrix(1 0 0 1.00507 148 402.492)"/><path d="M365.057 25.6493 365.057 28.5883C363.833 26.5622 360.805 25.1372 357.71 25.1372 351.231 25.1372 346.11 30.8593 346.11 38.0509 346.11 45.2425 351.231 51.0314 357.71 51.0314 360.849 51.0314 363.833 49.6065 365.057 47.5804L365.057 50.5194 372.204 50.5194 372.204 25.6493 365.057 25.6493ZM359.291 44.2183C355.884 44.2183 353.368 41.5911 353.368 38.14 353.368 34.5999 355.906 32.0171 359.291 32.0171 362.631 32.0171 365.213 34.5999 365.213 38.14 365.213 41.5688 362.631 44.2183 359.291 44.2183Z" fill="#FFFFFF" transform="matrix(1 0 0 1.00507 148 402.492)"/><path d="M395.115 15.0734 395.115 28.6106C393.891 26.5844 390.863 25.1595 387.768 25.1595 381.289 25.1595 376.168 30.8816 376.168 38.0955 376.168 45.2871 381.289 51.076 387.768 51.076 390.907 51.076 393.891 49.651 395.115 47.6249L395.115 50.5639 402.262 50.5639 402.262 15.0734 395.115 15.0734ZM389.349 44.1738C385.942 44.1738 383.426 41.5465 383.426 38.0955 383.426 34.5553 385.964 31.9726 389.349 31.9726 392.688 31.9726 395.271 34.5553 395.271 38.0955 395.271 41.5465 392.688 44.1738 389.349 44.1738Z" fill="#FFFFFF" transform="matrix(1 0 0 1.00507 148 402.492)"/><path d="M311.911 70.1794 311.911 73.1184C310.686 71.0922 307.658 69.6673 304.563 69.6673 298.084 69.6673 292.963 75.3894 292.963 82.581 292.963 89.7726 298.084 95.5615 304.563 95.5615 307.703 95.5615 310.686 94.1365 311.911 92.1104L311.911 95.0494 319.058 95.0494 319.058 70.1794 311.911 70.1794ZM306.122 88.7261C302.715 88.7261 300.199 86.0989 300.199 82.6478 300.199 79.1076 302.738 76.5249 306.122 76.5249 309.462 76.5249 312.044 79.1076 312.044 82.6478 312.044 86.0989 309.462 88.7261 306.122 88.7261Z" fill="#FFFFFF" transform="matrix(1 0 0 1.00507 148 402.492)"/><path d="M284.926 84.5403C284.169 87.6129 281.319 89.7058 278.135 89.7058 276.264 89.7058 274.639 88.9933 273.437 87.8133L284.77 81.2674C284.77 81.2674 284.77 81.2674 284.77 81.2674L290.113 78.1725C288.399 73.0738 283.768 69.6227 278.112 69.6227 270.876 69.6227 265.399 75.2113 265.399 82.6255 265.399 90.0398 270.876 95.5838 278.112 95.5838 284.235 95.5838 289.445 91.5983 290.737 85.7872L284.926 84.5403ZM271.366 82.6255C271.366 78.5065 274.261 75.5007 278.135 75.5007 279.738 75.5007 281.207 76.0351 282.343 76.9702L271.388 82.9818C271.366 82.8704 271.366 82.7591 271.366 82.6255Z" fill="#FFFFFF" transform="matrix(1 0 0 1.00507 148 402.492)"/><path d="M0 0 110.457 0 110.457 110.457 1.35895e-06 110.457Z" fill="#FF3228" transform="matrix(1 0 0 1.00507 148 402.492)"/><path d="M87.8355 58.9133C86.2547 66.1494 80.5326 68.22 78.1057 68.7544 77.0815 68.9771 76.0573 69.1106 75.0109 69.1106 71.6711 69.1106 68.5318 67.8638 66.3275 65.6818L93.8026 49.8069C92.5112 46.5116 90.7968 43.3277 88.1027 40.8118 83.3157 36.3811 76.369 34.3549 69.979 35.869 66.6392 36.6482 63.4999 38.3626 60.9394 40.6114 58.7351 42.5485 56.9094 44.9308 55.6848 47.6026 55.4622 48.0925 55.2618 48.6046 55.0614 49.1167 54.7942 49.8737 54.5716 50.6752 54.3935 51.4767L54.3935 37.0267 45.8214 37.0267 45.8214 58.2676C45.8214 64.5241 41.3239 69.2442 35.3569 69.2442 29.3453 69.2442 24.8032 64.5241 24.8032 58.2676L24.8032 37.0267 16.2312 37.0267 16.2312 58.2676C16.2312 69.4446 24.2689 77.5491 35.3569 77.5491 45.866 77.5491 53.6142 70.1794 54.3489 59.8484 54.9724 63.2549 56.3528 66.5724 58.468 69.4224 62.2085 74.4988 68.4204 77.5491 75.0331 77.5491 76.6808 77.5491 78.3506 77.371 79.976 76.9925 88.214 75.1222 94.3815 68.8212 96.1181 60.5163L87.8355 58.9133ZM62.6538 58.557C62.164 56.1969 62.2976 53.9259 62.9878 51.9888 64.0342 49.1167 66.2385 46.7343 68.888 45.2648 73.4078 42.7489 79.4416 43.3277 82.8927 47.4468L62.7651 59.0691 62.6538 58.557Z" fill="#FFFFFF" transform="matrix(1 0 0 1.00507 148 402.492)"/></g></svg>